<svg xmlns="http://www.w3.org/2000/svg" viewBox="0 0 512 512"><defs><style>.a{fill:#222;}.b{fill:#fff;stroke:#fff;stroke-miterlimit:10;stroke-width:6.55px;}</style></defs><rect class="a" x="72.21" width="367.58" height="512"/><path class="b" d="M203.89,330.25c-2.11,0-3.16-2.81-3.16-8.46V182.43c0-2.69-.54-4-1.65-3.79-6.65,1.68-10,2.53-10.09,2.53q-2.78.24-2.77-5.56v-12.1q0-5,3-5.67l33.3-8.57a4.3,4.3,0,0,1,1.13-.12c1.85,0,2.76,2,2.76,5.92V321.84c0,5.64-1.1,8.45-3.28,8.45Zm86.26.26a47.59,47.59,0,0,1-8.76-.72,23.43,23.43,0,0,1-7.75-3.16,19.65,19.65,0,0,1-6.63-6.75,39.37,39.37,0,0,1-4.22-12,89.66,89.66,0,0,1-1.58-18.28V224.94c0-1.68-.48-2.52-1.39-2.52H252c-2.11,0-3.17-2-3.16-6v-6.81q0-6.2,3.16-6.19h7.82c.91,0,1.39-1.12,1.39-3.4L263.47,151c.26-4.45,1.34-6.68,3.28-6.68h12.63q3.17,0,3.16,6.68v49c0,2.28.49,3.4,1.52,3.4h16.09q3.17,0,3.17,6.19v6.81q0,6-3.17,6h-16.1a1.3,1.3,0,0,0-1.19.44,4.23,4.23,0,0,0-.3,2.08V290a65.71,65.71,0,0,0,.93,12.21c.63,3.23,1.54,5.62,2.76,7.11a9.61,9.61,0,0,0,3.66,3,11.59,11.59,0,0,0,4.47.75h8.83c2.28,0,3.4,1.57,3.4,4.66v7.57c0,3.44-1.22,5.17-3.66,5.17h-12.8Zm48.41,15.15c1.92,0,3.59-1.57,5-4.74s2.15-7.63,2.15-13.44q0-2-2.53-14l-24.75-102.8a21.76,21.76,0,0,1-.26-2.79c0-3,.63-4.54,1.9-4.54h15.3a3.9,3.9,0,0,1,2.88,1.19q1.15,1.2,1.75,4.85l16.39,86.78c.33,1,.54,1.52.64,1.52.33,0,.51-.47.51-1.38l12.86-86.54c.33-2.53.87-4.22,1.57-5.11a3.33,3.33,0,0,1,2.72-1.33h10.62c1.43,0,2.15,1.63,2.15,4.91a21.26,21.26,0,0,1-.26,2.87l-22.43,117q-2.62,14.52-5.81,22.2c-2.1,5.14-4.44,8.62-7.07,10.48s-6,2.8-10.36,2.87h-1.26q-10.22,0-13.86-5.44c-.68-.71-1-2.69-1-5.8q0-9.35,3-9.34c.16,0,1.69.42,4.54,1.27a28.28,28.28,0,0,0,5.6,1.3Z"/><path class="b" d="M140.41,330.51c-2.11,0-3.17-2.82-3.16-8.46V182.66c0-2.69-.53-3.95-1.64-3.79-6.65,1.69-10,2.53-10.09,2.53-1.86.16-2.77-1.69-2.77-5.55V163.74q0-5,3-5.67l33.33-8.61a4.3,4.3,0,0,1,1.13-.12c1.85,0,2.76,2,2.76,5.93V322.05q0,8.46-3.28,8.46Z"/></svg>